<svg xmlns="http://www.w3.org/2000/svg" width="624" height="272" fill="none"  xmlns:v="https://vecta.io/nano"><g fill="#051b61"><path d="M234.473 1020.71c-2.99-8.51-6.684-17.01-8.97-25.696-3.87-14.887-7.036-30.129-10.203-45.193-1.231-6.557-1.583-13.469-2.11-20.204-.176-2.127-.352-4.785.527-6.557 2.463-4.785.352-7.444-3.166-10.634-10.906-10.102-17.414-22.33-16.71-37.749.352-7.975 1.407-15.773 2.286-23.749.352-3.012.352-5.316-1.759-7.62-13.544-15.774-24.098-33.673-33.244-52.282-8.092-16.482-15.304-33.496-21.284-50.687-6.684-19.672-10.202-40.231-10.906-61.144-.176-9.038.88-17.899 1.231-26.938 0-1.772 0-3.545-.527-5.317-5.805-16.128-4.222-32.255-.528-48.383 2.111-8.861 3.694-17.9 7.212-26.052 3.342-7.798 1.759-14.887.879-22.508-.879-8.152-.879-16.305-2.638-24.457-2.111-9.925 1.935-19.85 5.98-29.066 4.75-10.633 10.027-21.09 14.248-31.723 1.935-4.963 3.342-10.457 3.518-15.773.176-9.039-1.231-18.078 5.629-25.876-7.916-3.19-13.72-7.798-16.535-15.418-.351-.886-1.759-1.595-2.638-1.95-15.303-6.203-24.802-18.077-30.958-32.964-7.388-17.9-6.509-36.154-.528-54.054 5.629-16.482 11.961-32.433 17.942-48.738.176-.709.527-1.417 1.055-1.949 5.277-5.671 5.101-12.938 6.508-19.85 1.583-7.798 3.694-15.596 6.333-23.039 3.694-10.279 8.267-20.381 12.489-30.483.527-1.063.527-2.481.879-3.722-.352-.177-.704-.532-.879-.709l-10.73 7.444c-13.896 9.747-24.274 22.685-31.838 37.926-5.981 12.406-9.147 25.698-11.785 39.167-2.639 13.293-1.583 26.407-1.232 39.699.704 24.812-4.045 48.738-13.368 71.6-.176.532-.352 1.418-.704 1.595-5.805 3.722-5.101 10.279-6.508 15.773-2.111 8.33-4.222 16.66-5.629 24.989L63.676 502.5c-2.639 18.077-2.639 36.154.176 54.232 1.231 7.62 3.166 15.064 4.573 22.507.176 1.418-.352 3.899-1.231 4.431-6.332 3.899-7.388 10.457-8.443 16.659-.704 4.431-1.583 8.33-4.397 12.052-5.453 7.089-10.906 14.533-15.479 22.33-3.342 5.849-7.036 10.989-12.137 15.242-1.407 1.063-1.759 3.367-2.463 5.14-1.055 2.658-1.583 5.848-3.166 8.152-3.518 4.785-3.87 8.684 1.759 12.76.88-3.899 1.407-7.798 2.639-11.519 1.055-3.013 2.99-5.672 4.749-8.507.528.177.88.354 1.407.531-.352 3.013-.704 6.026-.88 8.862-1.231 11.874-3.694 23.925 3.518 34.736 1.935 3.013 5.101 5.14 8.795 7.267-8.443-16.128-4.749-30.306 5.277-43.421 1.231-1.595 3.342-2.481 5.101-3.722l1.231 1.241-4.398 7.621c-5.805 11.519-7.388 22.862.528 34.204 3.518 4.963 6.508 10.457 9.85 15.596.528.709 1.407 1.241 3.166 1.595-.352-3.367-.352-6.911-1.231-10.279-4.222-17.723 1.935-31.901 14.951-43.42 1.583-1.418 4.397-1.595 7.212-2.659 1.231 6.558.176 12.052-1.231 17.546-1.583 7.266.352 11.519 5.453 12.76l10.554-26.052c2.287-5.14 1.935-10.102.352-15.419-3.694-12.76-6.86-25.875-10.202-38.813-.176-.354-.352-1.063-.176-1.24 4.221-7.621 3.342-17.546 10.554-24.103 1.583-1.418 2.814-4.431 2.638-6.735-.176-6.203 2.99-10.456 6.332-14.887.176-.177.528-.354.704-.532 1.935-6.912 7.915-11.874 8.443-19.849.352-7.444 3.518-14.533 4.574-21.976 1.934-13.115 2.638-26.407 4.749-39.522 1.231-7.975 4.221-15.596 6.508-23.394 2.463-7.798 6.332-15.241 7.388-23.039.879-7.798 7.036-13.47 6.684-21.445 0-.532 1.055-1.24 1.583-1.772.704.709 1.759 1.24 1.935 1.949.352 1.064 0 2.304-.176 3.545l-10.026 41.648c-2.815 13.115-5.453 26.23-7.74 39.345-1.759 10.279-2.286 20.913-4.573 31.014-2.287 9.748-5.981 18.964-9.323 28.357-.527 1.418-1.583 2.481-2.286 3.721l-4.222 7.976-5.277 11.342c-.352.709-.879 1.241-1.055 1.95-1.408 7.443-6.684 13.115-10.202 19.849-2.111 3.899-2.111 7.621-.704 11.697l11.785 35.091c3.166 8.684-.528 16.305-3.342 23.926-1.935 5.317-4.397 10.633-7.036 15.773a50.41 50.41 0 0 1-5.629 8.861c-.704.886-3.342.886-4.749.355-6.156-2.304-9.85-6.912-9.674-13.647.176-3.721 1.055-7.621 1.759-11.342.352-1.95.704-3.899.528-5.849-5.101 4.431-7.212 10.457-9.674 16.305-3.694 8.153-1.055 16.128.352 24.28.879 5.14.879 10.634-.352 15.596-1.759 6.38-7.212 7.266-11.785 2.127-2.287-2.481-3.518-5.849-5.805-8.33-1.759-1.949-4.222-4.076-6.508-4.43-7.564-1.241-12.489-5.849-16.886-11.52-2.99-3.722-6.684-6.912-9.147-10.988-2.638-4.254-4.397-9.216-6.332-14.001-.704-1.595-.528-3.545-.352-5.317.176-3.722 1.759-7.089.879-11.52-.704-3.544 3.166-8.329 5.453-12.406 1.231-2.481 2.99-4.962 4.749-7.266 2.814-3.722 5.981-7.089 8.795-10.811 1.935-2.304 3.694-4.608 5.453-6.912l9.499-12.406c.704-1.063 1.935-1.949 2.287-3.012 1.759-5.494 3.342-11.166 5.101-16.837.528-1.772 1.231-3.722 2.287-5.14 2.463-3.19 3.166-6.734 1.583-10.279-5.277-12.583-6.156-26.052-6.508-39.521-.528-19.141 1.759-37.927 5.629-56.713 1.935-9.747 3.166-19.849 5.101-29.597 2.111-9.747 4.573-19.495 7.036-29.242l14.072-51.042c2.463-8.684 5.629-17.191 7.036-26.052 2.287-13.824 3.342-27.825 4.925-41.648.176-1.064 0-2.482-.704-3.368-3.694-4.608-2.814-10.102-2.463-15.241 1.055-18.077 5.101-35.623 13.017-51.928 8.267-16.836 19.877-30.837 35.18-41.471l37.114-25.698c1.935-1.418 3.694-2.835 5.277-4.608.704-.886.88-3.013.352-3.721-8.619-9.748-14.775-21.09-20.228-32.61l-15.655 23.394C146 151.5 140.018 153.886 136.5 153c10.905-10.279 12.487-29.766 14.421-42.349.176-1.595-1.583-4.253-3.166-5.139-8.443-4.608-13.896-12.052-18.997-19.85-3.518-5.494-2.287-10.634 2.287-15.064 1.231-1.241 1.583-4.608.879-6.203-4.045-8.507-6.86-17.191-7.915-26.584-2.287-17.368-4.574-35.091-.528-52.459 5.277-22.331 15.655-41.826 35.18-54.94 7.915-5.317 16.886-7.798 26.385-9.039 6.332-.886 12.489-2.658 18.821-4.076 1.935-.355 3.694-.886 5.629-1.063 5.453-.532 11.609 1.063 15.479-4.608 11.785-3.544 22.163-11.343 35.004-11.697 4.046-.177 8.091 0 12.137.355 15.655 1.595 30.782 5.671 45.734 10.456 21.987 7.089 43.974 14.533 67.017 17.191 20.58 2.304 41.336 1.595 61.213-5.14 2.814-.886 5.453-2.304 7.915-3.722 2.639-1.418 3.167-3.544 1.584-6.38-.704-1.241-.176-3.19-.176-4.785 1.934.355 4.221 0 5.452 1.063 4.75 3.899 3.343 11.343-2.11 15.95-6.157 5.14-13.72 6.735-21.108 7.798-15.655 2.304-31.486 3.722-47.317 2.304-15.303-1.418-30.255-4.431-45.03-9.216-18.821-6.203-37.818-12.406-56.991-17.368-11.786-3.19-24.099-5.494-36.412-2.836-1.583.354-3.166 1.063-4.573 2.658 3.166 1.063 6.508 2.127 9.675 3.013 7.563 2.127 13.016 7.089 17.765 12.938 1.232 1.595 2.991 3.19 1.056 5.849-.352.532.879 3.367 1.935 3.899 5.804 3.19 11.257 6.912 14.775 12.583 2.639 4.254 5.277 8.684 7.388 13.292 2.287 4.785 3.342 10.456 9.498 11.697-1.055 1.772-2.99 3.545-2.814 4.962.176 1.95 1.759 4.076 3.166 5.317C323.654-5.964 340.013.948 357.427 5.91c13.896 3.899 27.792 4.962 41.864 3.722 13.016-1.241 24.977-6.026 35.883-14.178-17.238-.177-35.004 2.127-49.779-9.393 0-.709-.176-1.241-.176-1.95 1.935-.709 4.046-1.772 5.98-1.95 11.61-1.241 22.867-3.367 33.421-8.152 10.202-4.608 23.571-14.001 29.2-20.913-5.629 2.481-10.73 4.785-16.007 6.735-11.61 4.254-23.219 4.608-34.828.532-1.407-.532-2.463-2.481-3.518-3.722 1.759-.532 3.694-1.772 5.101-1.418 17.062 4.076 32.717 1.063 47.668-7.975 11.258-6.735 19.877-15.773 25.858-27.647.351-.709 1.055-1.418 1.583-2.127.176-.355.703-.532 2.286-.355-.527 2.127-.527 4.608-1.759 6.38-4.045 6.026-9.85 11.343-12.313 18.077-3.869 10.634-12.312 16.837-19.876 23.748-9.85 8.861-20.932 15.773-33.949 19.318-2.11.532-4.045 1.595-5.628 3.013 23.042 2.304 45.03 1.772 56.815-25.166 2.111 5.671-.176 9.216-2.111 12.229-2.462 3.899-6.156 7.089-9.147 10.634-3.342 3.899-6.332 8.33-10.202 11.874-14.072 12.938-30.958 18.963-49.955 19.495-26.033.709-49.604-7.266-71.767-19.849-3.342-1.949-6.332-4.608-9.498-6.912-1.056-.709-2.111-1.241-4.046-1.241 1.583 4.253 3.518 8.507 4.925 12.938 5.453 17.368 8.619 35.091 7.036 53.168-.704 9.393-1.935 19.14-6.86 27.647-.528 1.063-.528 3.19 0 4.076 4.749 6.203 10.026 12.229 17.59 14.71 3.694 1.241 7.739 1.241 13.016 1.95-4.397 4.076-8.97 6.203-13.544 6.912-4.925.709-10.026-.709-16.007-1.064 0 1.95-.351 4.431 0 6.735 1.584 10.456 3.342 20.913 9.499 29.774 1.407 1.95 3.87 3.545 6.156 4.431 9.323 3.721 18.822 7.266 28.144 10.633l17.942 6.558c3.694 1.418 7.388 3.367 11.082 4.785 17.238 6.38 34.476 12.937 49.779 23.748 17.766 12.761 29.551 29.774 33.421 51.396 2.99 16.482 10.73 30.66 17.766 45.193l22.691 48.737c5.277 11.875 10.026 23.926 14.423 35.977 4.046 11.166 6.86 22.863 11.082 34.028 4.573 12.76 10.026 24.989 14.951 37.572 1.232 3.013 3.167 6.026 3.342 9.039.176 7.266 4.222 12.76 7.388 18.609 7.036 13.646 13.369 27.47 18.294 42.002l14.248 40.231c5.452 16.836 10.378 34.027 10.026 52.105l-1.232 34.027c0 2.127.176 4.431 0 6.558-.351 5.671 1.408 9.924 5.277 14.887 6.333 7.975 10.906 17.722 15.48 26.938 3.869 7.798 6.86 16.305 10.026 24.458 3.87 10.101 6.684 20.558 5.277 31.546-.528 3.544-1.232 7.443-3.166 10.456-2.463 3.722-2.991 7.444-3.518 11.52s-1.935 7.975-3.518 11.697c-.528 1.241-2.463 1.772-3.87 2.658-.704-1.417-2.111-3.012-2.111-4.43a79.13 79.13 0 0 1 1.583-12.761c2.99-15.241-.352-29.951-3.342-44.661-1.055-4.962-4.222-9.57-6.508-14.355-.352-.886-.528-1.772-.88-2.659l1.056-1.063 8.795 7.621c-1.583-4.608-2.639-8.862-4.398-12.761-3.87-9.393-7.739-18.786-12.489-27.647-2.11-3.899-6.332-6.557-9.322-9.925-1.407-1.595-3.166-3.721-3.342-5.494-.176-10.102.176-20.026.176-30.128 0-11.52-.704-23.04-.352-34.56.352-9.924-4.046-18.077-7.036-26.938l-14.072-43.598c-3.166-9.747-6.86-19.495-10.378-29.065-2.111-5.494-4.222-10.988-6.684-16.305-2.111-4.431-4.046-8.861-7.74-12.938-4.221-4.607-6.508-11.165-8.619-17.191l-17.414-51.218c-6.156-17.368-12.665-34.737-19.701-51.928-7.036-17.368-14.951-34.382-22.515-51.573-.703-1.595-1.759-2.835-2.462-4.43-.352.177-.88.177-1.232.354l1.408 17.723c0 1.063.527 2.126.351 3.013-.527 1.417-1.583 2.481-2.462 3.721-1.231-1.063-3.166-1.949-3.342-3.012l-6.509-36.509c-2.286-14.533-4.221-29.243-10.729-42.712-5.629-11.697-14.072-21.444-24.802-28.533-8.443-5.495-17.414-10.102-26.209-15.065-6.332-3.367-8.971-2.835-11.434 4.076-3.518 9.571-6.332 19.495-9.146 29.42-2.639 9.57-5.101 19.141-6.86 28.711-1.408 8.33-1.759 16.659-2.287 25.166 0 1.063 1.231 2.836 2.287 3.367 16.886 10.102 29.551 23.926 35.355 43.067 1.408 4.785 1.056 10.102 1.408 15.241 0 .532-.176 1.418-.528 1.595-4.925 3.013-2.111 6.912-1.056 10.457l7.74 28.356c.176.354 0 .886.176 1.24l8.795 25.876c2.111 6.734 3.518 13.646 6.156 20.026 2.639 6.735 6.684 12.938 9.499 19.672 4.749 11.166 13.544 19.673 19.173 30.129.352.709 1.055 1.772.879 2.481-.703 4.076 1.583 7.089 2.991 10.634 4.221 10.279 13.72 12.406 22.691 15.064 3.166.886 7.915 4.785 7.915 8.153 0 4.607-.352 9.038.176 13.646 2.463 22.685 6.86 44.838 17.062 65.574 5.101 10.279 11.258 20.027 17.238 29.597 5.101 8.152 10.202 16.482 16.359 23.748 4.573 5.494 8.971 10.634 11.081 17.546 1.056 3.19 2.111 6.557 2.463 9.747.176 1.595-1.407 3.368-2.287 5.14-.879 1.595-2.286 3.19-3.166 4.785-.527.886-.527 2.127-1.055 2.836-6.157 7.975-8.091 17.191-7.916 26.938s-1.583 18.963-6.508 27.648c-1.055 1.772-.352 4.43-.528 6.557 2.111.177 4.75 1.063 6.157.177 4.221-2.304 8.267-5.317 12.137-8.507 1.055-.886.703-3.367.703-5.139 0-1.95-.527-4.077-.703-6.026.528-.177.879-.354 1.407-.532.88.886 2.111 1.595 2.639 2.481l19.7 36.864c2.815 5.139 1.232 9.57-1.583 14.001-2.99 5.139-5.804 10.456-8.443 15.95-.704 1.595-.704 3.722-1.055 6.735 2.99-1.241 4.925-1.773 6.156-2.836 6.86-5.671 14.072-10.988 20.404-17.368 2.463-2.481 3.694-7.089 4.046-10.988.528-4.254-.176-8.862-.879-13.115-1.232-7.444-3.167-14.887-4.574-22.508-.176-1.241.352-2.481.352-3.722.528 0 1.055-.177 1.583-.177 1.407 3.722 2.814 7.444 3.87 11.343l5.101 18.254c3.166 10.811 1.407 20.027-7.036 27.647-.528.532-.879 1.241-1.231 1.773 3.342 1.063 9.498-1.95 12.489-5.14 5.101-5.671 2.462-11.52 1.231-17.545-2.111-9.571-3.87-19.318-5.805-29.066-.176-.709.176-1.417.352-3.544 1.583 1.595 3.166 2.304 3.342 3.544 3.166 10.811 6.508 21.622 9.147 32.787 4.221 18.078-6.333 25.344-22.691 28.534h-.352c-5.981-.886-10.906 1.241-15.479 5.139-1.935 1.596-4.573 2.659-7.036 3.191-7.212 1.417-10.906-.709-10.73-9.925 0-3.545.176-6.557-1.759-9.925-2.638-4.608.528-9.038 3.342-12.406 1.407-1.772 5.101-2.126 7.74-2.304 2.814-.177 4.045-1.418 2.638-4.608-2.462-5.316-5.277-10.456-7.915-15.773-.352-.531-.704-1.063-.88-1.595-3.869-7.089-3.87-6.912-10.202-1.772-5.629 4.431-11.785 6.38-18.645 3.367-5.277-2.304-7.74-7.62-5.805-13.115 1.056-2.835 2.111-5.848 3.694-8.506 3.694-6.912 4.222-14.356 4.046-21.977-.352-10.988 2.814-20.558 10.026-28.888 4.397-4.962 4.573-7.798 1.055-13.469l-16.358-26.584c-1.056-1.772-.88-3.899-1.583-5.848-.352-1.241-1.056-2.482-1.759-3.545-5.101-6.735-10.906-13.115-15.128-20.558-5.453-9.393-10.026-19.318-14.072-29.42-2.99-7.266-4.925-15.241-6.156-23.039-1.935-13.47-2.99-26.939-4.222-40.408-.351-3.545-1.759-5.317-4.925-6.38-3.694-1.064-7.212-2.659-11.257-4.254l1.231 18.963c.176 2.836.176 5.672.176 8.33-.176 6.912.352 12.76 5.101 18.963 7.564 10.102 9.85 23.04 10.906 35.446.879 10.811 2.286 21.976-1.759 32.432-1.935 5.317-1.935 10.457-1.056 15.951.704 4.43.176 9.038.176 14.001-.879-.532-1.935-.886-3.694-1.95 1.759 3.722 3.518 6.38 4.398 9.393 1.407 4.608.352 6.38-3.694 6.735 7.212 5.848 3.518 13.469 2.99 20.026-1.407 16.837-3.342 33.674-5.804 50.51-1.759 12.406-4.222 24.635-7.036 36.863s-5.453 24.812-10.203 36.509c-5.804 14.533-13.368 28.356-20.756 42.18-3.342 6.38-5.101 12.938-5.628 19.672-.528 6.912-.176 13.824-.176 20.736 0 11.52-2.463 22.153-10.027 31.192-3.342 4.076-3.693 8.861-2.814 13.824l4.749 24.28c3.342 17.014 4.75 34.204 2.639 51.399-.352 3.36-.528 6.73-.704 10.1h-8.795c.528-6.74 1.759-13.47 1.759-20.205s-1.231-13.47-1.583-20.204-.176-13.47-.352-20.204c0-.886 0-1.95-.351-2.659-4.398-7.443-3.694-15.418-3.518-23.571 0-1.24-.176-2.481-.352-2.835-4.398.531-8.092 1.24-11.785 1.595-2.111.177-4.75.886-4.75-2.659 0-3.012 1.056-5.671 4.398-6.025 11.081-1.418 17.414-9.039 20.756-18.432 2.638-7.621 2.462-16.128 4.046-24.28 1.055-5.317-2.815-10.457.351-15.773.176-.355-.527-2.127-1.231-2.481-4.397-1.95-3.518-4.963-1.583-7.976 4.222-7.089 8.795-14.001 12.841-21.267 6.86-12.051 14.071-24.103 16.534-38.104.352-2.126 1.407-4.076 2.111-6.203 1.935-6.203 4.046-12.228 5.629-18.431 1.934-7.621 3.166-15.419 4.749-23.04a25.47 25.47 0 0 0 .528-5.139c.175-2.836 0-5.494.351-8.33l3.342-20.736 4.398-23.394c1.231-7.62 2.99-15.064 3.166-22.685.352-9.216-.528-18.609-.528-28.002l.352-40.585c.528-17.013-3.87-32.964-9.147-48.56l-18.293 24.812c-2.463 3.545-4.925 7.266-7.036 10.988-3.518 5.849-6.156 12.583-10.554 17.723-6.684 8.152-14.072 15.95-21.987 22.862-9.851 8.684-20.58 16.482-30.959 24.28l-37.818 27.825c-4.573 3.367-9.147 7.266-14.072 10.102-4.221 2.304-9.146 3.722-13.896 4.962s-9.85 1.418-14.775 2.304c-1.056.177-2.639 1.418-2.815 2.304-1.759 15.596-4.045 31.192-5.101 46.965-1.055 15.064-.703 30.306-1.231 45.548l-1.231 28.001c4.749 0 4.749 4.786 5.628 8.685 2.815 12.051 5.102 24.102 8.444 35.977 3.166 11.165 7.211 21.976 11.081 32.964 1.232 3.367.88 5.317-2.99 6.026-.879.177-2.287 1.417-2.463 2.303-1.055 9.748.528 18.787 7.036 26.585 5.277 6.38 11.61 11.165 19.525 13.646 2.463.709 4.398 2.836 2.99 5.317-.703 1.24-3.869 2.304-5.277 1.772-4.045-1.418-7.915-3.722-11.785-5.671l-3.166-1.595c0 8.152-.528 15.596.176 23.039l5.453 52.281h-9.675c.352-3.19 1.232-6.38 1.232-9.57 0-3.54-1.056-7.27-1.232-10.81l-.879-29.597c0-1.24-.176-2.481-.528-3.544-2.638-5.849-1.935-11.697-1.583-17.9.176-4.076-.528-8.507-1.935-12.406-1.759-5.317-5.804-10.102-6.684-15.596-.879-6.026-.176-12.583 1.407-18.609 1.407-5.139 1.232-9.393-1.583-13.824-5.98-8.861-10.554-18.077-10.202-29.242 0-1.241-.704-2.481-1.055-3.899-2.287-10.279-5.453-20.558-6.685-31.015-1.934-15.419-3.342-31.015-2.11-46.788 1.055-12.583 1.231-25.343 1.935-37.926.175-3.722 1.231-7.267 1.934-10.811 1.935-9.039.704-18.609 5.453-27.116 1.408-2.481.88-4.962-3.166-5.494-5.277-.532-11.082-.709-15.655-3.013-7.739-3.721-16.359-4.253-24.274-7.975-15.127-7.266-28.496-16.305-39.929-28.711-8.795-9.393-17.766-18.786-27.616-27.115-12.313-10.28-24.098-20.913-32.542-34.737l-13.72-23.571c-.351 1.595-.879 2.658-1.055 3.899-1.759 8.861-4.222 17.545-5.277 26.407-1.231 9.747-1.583 19.672-1.407 29.597 0 8.329 2.111 16.482 1.583 24.989-.704 15.418-.176 30.837 2.814 46.256 3.342 17.368 7.74 34.382 14.776 50.687 4.749 11.342 9.85 22.685 15.655 33.496 5.804 10.633 12.313 20.912 18.997 31.014 5.277 8.153 11.257 15.774 17.062 23.394 2.111 2.836 1.935 5.317-1.407 6.912-2.639 1.241-3.166 3.013-3.166 5.671l-.176 18.609c.176 17.546 8.619 29.952 23.57 38.281 5.981 3.368 11.786 6.912 17.59 10.634 1.232.886 1.583 3.013 2.287 4.431-1.935.354-4.222 1.418-5.981.886-4.749-1.773-9.322-4.076-13.896-6.38-4.221-2.127-6.156-1.241-6.508 3.544-.176 1.241 0 2.658.352 3.899l5.277 28.179c3.518 18.432 8.795 36.332 16.358 53.524 1.408 3.37 2.287 6.91 3.518 10.46-2.99 2.12-5.804 2.12-8.795 2.12zm190.323-599.38c.176-.177-.352.177-.703.532-.528.354-.88.886-1.232 1.24-6.332 9.039-13.72 15.419-25.681 16.483-14.072 1.24-28.144 3.721-42.392 2.658-4.925-.354-9.85-.177-14.951-.354-1.055 0-1.935-.355-2.99-.532-2.815-.709-5.453-1.418-8.268-1.95-2.286-.354-4.749-.177-7.036-.531-8.794-1.418-17.414-3.368-26.384-4.254-20.053-2.127-40.281-3.899-60.334-5.317a1450.41 1450.41 0 0 0-55.76-3.19c-8.795-.354-15.831 5.14-14.775 14.178 1.055 9.571 1.759 19.318 2.462 29.066.176 3.013.88 6.203.704 9.215-.176 4.077-1.055 7.976-3.518 11.166-.528 0-1.055-.177-1.759-.177V469.89c-.352 0-.88-.177-1.231-.177-.352.532-1.056 1.063-1.232 1.595-5.277 12.583-11.081 24.989-15.655 37.927-1.759 4.962-1.583 10.988-1.055 16.482.528 4.785 2.463 9.393 4.397 13.824 2.991 6.911 6.157 13.646 9.499 20.381.352.709 1.759 1.063 2.814 1.595.352-1.064 1.056-2.127 1.056-3.19-.176-3.19-.704-6.381-.704-9.748 0-6.38-3.87-13.115 1.583-19.14.704 3.19 1.759 6.557 2.287 9.747.352 1.772-.176 3.722-.352 5.671-.176 2.304-1.055 4.786-.352 6.735 1.408 3.899 3.342 7.444 5.453 10.988 3.518 5.849 6.86 11.52 10.906 17.014 5.453 7.621 13.896 11.52 21.46 16.305 4.749 3.013 9.498 6.557 14.599 8.684 11.434 4.962 23.395 7.798 35.884 9.57 24.274 3.545 48.548 3.013 72.294-2.835 19.525-4.786 36.763-14.001 52.066-26.939 4.398-3.722 8.619-7.798 13.193-11.343 1.055-.708 2.99-.354 4.573-.354 0 1.418.528 3.013 0 4.253s-1.759 2.304-2.814 3.368l-11.082 10.456c.352.355.528.886.88 1.241 1.055-.177 2.11-.355 2.99-.886 17.414-11.166 31.31-25.698 43.271-42.358 4.397-6.203 6.86-13.469 15.655-16.836 7.915-3.013 14.424-10.279 19.173-18.077 4.573-7.089 4.573-14.179-.704-20.736-4.573-5.494-9.85-10.279-14.247-15.773-2.463-3.013-5.805-7.089-5.453-10.456.879-9.748-5.453-17.014-7.564-25.698-1.407-7.089-5.805-13.115-8.971-19.85zm-21.635-92.69c2.638 0 3.342-1.949 2.286-4.785-1.935-5.139-3.518-10.633-6.156-15.418-5.277-9.571-12.841-17.546-21.46-24.28-1.759-1.418-4.221-2.127-6.508-2.304-2.639-.178-4.222-.887-4.046-3.899.704-9.571.704-19.141 2.287-28.534 1.407-9.039 4.046-17.723 6.684-26.407 4.222-13.292 5.981-27.824 15.831-38.812.528-.532-.176-3.545-1.055-3.899-4.222-1.95-8.619-3.368-13.193-4.963-3.166-1.063-5.101-.177-6.332 3.367-4.749 13.647-10.202 27.293-14.6 41.117-3.342 10.634-5.804 21.622-8.267 32.433-1.231 5.494-3.518 12.228 5.629 14.001.351 0 .879.531 1.055.709.528 1.417 1.407 3.19 1.055 4.253-.527 1.063-2.638 2.481-3.693 2.304-5.101-1.063-10.73.354-15.128-3.545-.879-.709-2.462-1.063-3.694-1.24-15.655-1.95-31.31-4.608-46.965-5.494-23.746-1.418-47.668-1.418-71.591-2.127-2.462 0-4.925-.354-7.387-.354-9.851-.355-19.525-1.064-29.375-1.064-5.102 0-7.212-1.772-6.861-6.734 1.408-15.419 1.584-30.838 5.453-46.079 3.167-12.052 5.981-23.926 13.369-34.205 1.231-1.773 2.638-3.368 4.045-5.14-2.11-1.595-3.518-2.835-5.453-4.431-5.804 9.216-14.247 15.065-22.69 20.736-.88.532-1.232 2.127-1.584 3.367l-6.684 23.217c-1.935 6.912-4.045 13.824-5.628 20.736-2.287 10.279-4.046 20.558-6.333 30.66-.352 1.772-2.111 3.899-3.518 4.431-3.87 1.24-5.629 4.076-6.86 7.443l-11.433 34.382c-2.639 9.039-5.453 18.077-6.86 27.293-2.639 16.482 1.934 31.547 10.905 45.37 7.212 10.988 17.414 18.609 30.431 19.318 12.84.886 25.681-.532 38.522-.886 6.332-.177 12.664-.355 18.821-.177 1.231 0 2.463 2.126 3.694 3.367-1.231.886-2.463 2.127-3.87 2.304-3.518.709-7.388.532-10.906 1.595-15.303 4.076-30.782 5.139-46.613 2.836-1.055-.178-2.111.177-4.046.354 4.046 5.14 9.323 6.557 14.248 7.444 11.785 1.949 23.747 3.544 35.708 4.43 11.785.886 23.746.355 35.531 1.064 14.952.886 29.727 2.304 44.679 3.721l51.538 5.317c16.535 2.127 32.893 3.545 49.604 2.304 11.433-.886 22.339-2.836 30.782-12.229 6.332-6.911 7.915-9.924 4.046-18.254-2.111-4.608-3.518-9.039-3.87-14.178-.176-2.836-1.759-5.494-2.639-8.33-1.231 1.418-1.759 2.481-1.935 3.545-1.583 8.329-6.332 14.887-12.84 19.849-17.59 13.469-37.994 17.368-59.278 16.128-14.952-.886-29.727-4.254-44.678-6.38-16.535-2.304-31.838-8.507-46.966-15.242-1.055-.532-1.934-1.418-3.869-3.013 2.286-.177 3.166-.531 3.869-.354 8.62 1.949 17.59 3.19 26.034 6.026 15.83 5.139 32.013 7.798 48.372 9.924s32.365 2.481 48.372-1.949c15.831-4.431 28.496-12.052 32.893-29.42.88-3.19 2.639-6.026 3.87-9.039.528-1.417 1.583-2.835 1.407-4.253-.528-3.722-1.759-7.443-2.287-11.165-1.583-8.684-2.638-17.546-3.869-26.762zM181.176-13.23c-.352 2.304-.528 4.608-1.055 6.912-2.287 9.039-6.685 16.837-12.137 24.28l-17.942 24.457c-2.99 4.254-5.277 9.039-8.619 13.115-2.111 2.481-2.111 4.431-1.056 7.089.528 1.418.528 3.544-.175 4.962-1.232 3.19 1.583 8.507 4.925 7.798 3.694-.709 5.101 1.595 6.156 3.545 4.749 9.57 9.499 19.141 13.72 29.065 6.684 15.773 13.193 31.369 24.802 44.307 7.916 8.861 17.238 15.596 28.672 17.9 11.785 2.481 23.57.177 34.652-4.963 11.257-5.139 20.932-12.583 29.903-21.09.879-.886 2.789-1.979 4.221-1.063 1.526.976 1.231 3.544.528 4.608-2.111 3.367-4.573 6.912-7.564 9.747-13.192 12.938-29.551 19.141-46.965 23.04 3.166.886 6.684 1.949 10.202 2.658 15.479 2.481 29.2-2.481 41.688-11.165 5.805-4.076 11.258-8.507 17.063-12.583 1.583-1.064 3.805-2.389 5.98-.886 2.325 1.997.325 3.997-.703 5.671-.176.709-1.056 1.418-1.584 2.127-6.332 7.62-14.599 12.228-23.218 16.836-10.906 5.849-21.988 9.748-34.301 9.748-3.342 0-6.684-.709-9.85-1.595-6.156-1.773-12.313-3.368-18.117-6.026-6.685-3.013-12.841-7.089-18.118-12.406-2.639-2.658-5.101-2.658-6.684 1.241-3.166 7.798-6.86 15.418-9.323 23.216-5.453 16.482-5.453 34.028-6.86 51.219-.352 5.139.352 5.671 5.805 5.671h38.522l58.398 1.418c11.609.354 23.043 1.241 34.652 2.127 5.453.354 11.082 1.595 16.535 2.304 3.869.531 6.332-.532 5.98-5.14-.176-1.772.528-3.722 1.056-5.671l11.257-39.876c1.231-4.254 2.99-8.507 4.925-12.583 3.87-7.444 7.916-14.71 11.962-21.977 1.231-2.126 1.055-3.367-1.408-4.43l-37.994-17.546c-1.231-.531-2.814 0-4.046 0s-2.814 0-3.693-.709c-7.388-5.848-9.851-14.355-11.61-22.862-.879-4.431.704-9.747-5.804-11.342-.176 0-.528-.355-.528-.532l-4.046-17.014c-.703-2.835-1.231-5.848-2.638-8.507-1.583-3.013-4.398-5.317-5.805-8.152-.704-1.595-.528-4.785.704-5.671 2.11-1.772 3.166.355 3.869 2.304.352.709.88 1.241 1.232 1.772 4.749 7.798 11.785 13.292 18.645 18.786 2.639 2.127 5.805 4.076 8.971 3.544l-18.821-19.317c-1.056-1.063-2.111-3.367-3.167-3.367-5.101 0-5.452-3.899-6.508-7.443-.527-1.595-1.935-2.658-3.166-4.431-2.287-5.671-4.573-11.874-7.212-17.9-2.287-5.494-5.453-10.811-6.684-16.482-1.583-7.089-8.267-12.583-15.655-11.342-5.101.886-10.378 1.241-15.655 1.95-17.766 2.481-31.838-5.494-44.854-16.128-8.092-6.38-16.887-12.938-21.46-23.217zm287.419 533.453c-.352-.177-.704-.355-1.055-.355-2.287 2.304-4.574 4.608-7.036 6.735-3.694 3.19-7.036 7.266-11.434 9.393-5.453 2.658-10.026 5.317-12.84 10.988-1.935 4.076-4.574 7.798-7.388 11.343-9.675 11.874-20.58 22.507-32.893 31.546-7.212 5.317-15.128 9.393-24.274 10.634-2.639.354-5.453 1.24-7.564 2.658-9.147 6.026-17.942 12.583-29.023 14.887-6.333 1.418-12.665 3.367-18.997 4.431-8.795 1.595-17.414 3.19-26.385 3.544-8.267.355-16.535-1.418-24.802-1.24-15.127.177-29.727-2.836-43.623-8.153-9.674-3.544-19.173-7.975-27.616-13.823-9.499-6.381-19.173-12.584-26.209-22.508-4.046-5.849-10.202-9.925-12.489-17.191-.352-1.241-1.583-2.127-2.462-3.19-1.935-2.304-3.694-4.785-5.453-7.267-1.408-1.949-2.639-3.899-4.046-5.848l-1.055.532c2.286 7.266 3.869 14.709 7.211 21.621 8.795 18.609 20.756 35.091 36.587 48.383 7.916 6.735 16.183 13.115 23.747 20.204 7.036 6.735 13.192 14.533 20.052 21.445 15.303 15.064 34.828 21.976 55.233 26.052 18.117 3.722 36.059.709 53.649-4.254 1.231-.354 2.286-1.24 3.342-2.126 5.629-4.963 10.906-10.102 16.71-14.71l54.705-42.535c10.378-8.329 19.701-18.077 26.561-29.774 4.573-7.798 7.739-16.304 12.488-23.925 5.453-8.684 11.258-17.014 14.6-26.939 2.287-6.734 1.231-13.646 1.759-20.558zM173.085-40.7c.351-.177.879-.355 1.231-.709 3.87 2.481 5.629 6.557 7.212 10.811 1.583 4.431 2.99 9.216 5.629 12.938 13.544 18.786 30.254 33.141 54.001 36.509 4.749.709 9.498.177 14.599.177-7.036-6.38-13.72-12.229-19.876-18.254s-11.786-12.583-15.479-20.381c2.99 1.595 5.276 3.899 7.387 6.38C239.575.416 252.767 12.29 269.653 19.557c2.463 1.063 4.046 1.772 6.157-1.241 2.814-3.899 4.397-3.367 6.86 1.063.703 1.241 2.638 2.304 4.045 2.658 3.694.886 7.564 1.063 7.916 6.203.528-3.013 1.407-5.671 1.583-8.507.528-5.494 2.111-11.165 1.055-16.482-1.231-5.671-4.045-11.52-7.915-15.95-9.499-11.342-19.173-22.508-29.903-32.61-9.498-8.861-20.756-15.242-33.773-17.9-1.231-.177-2.286-1.595-3.342-2.481l1.408-1.949c33.245 6.735 55.584 29.065 75.636 56.181v-4.253c-.879-15.773-10.554-27.293-19.876-38.281-8.971-10.456-21.988-15.95-35.356-19.495-10.73-2.836-21.812-5.317-32.717-5.671-9.147-.177-18.47 2.658-27.792 4.608-4.574.886-9.147 2.127-13.369 4.076-16.358 7.798-27.44 21.09-34.652 37.395-9.322 20.736-11.081 42.357-5.804 64.333.351 1.595.703 3.19 1.231 5.14 4.221-8.33 7.036-17.014 12.313-23.571 5.277-6.735 11.433-13.469 21.108-16.837-7.212 8.684-14.776 15.773-19.877 24.457s-7.036 19.141-9.147 29.065c3.694-4.608 6.86-9.216 10.202-13.647 3.518-4.785 7.564-9.393 10.906-14.355 5.981-8.33 14.952-14.533 17.766-24.989 1.759-7.089 3.518-14.355 3.87-21.622.176-3.899-2.463-7.975-3.87-12.051-.528-1.063-.88-2.304-1.231-3.544zM308.703 8.037c-1.935 9.57 1.935 19.318-3.342 28.002 5.453 4.785 5.98 11.165 4.925 17.723s-2.463 12.938-3.518 19.495c-.176.886.176 1.772.352 3.013 10.905-13.115 7.388-58.308 1.583-68.232zM230.428-84.83l35.004 10.988c-.352-8.507-24.099-15.596-35.004-10.988zM149.69 96.119c-1.055-4.431-2.111-8.507-3.166-12.406-.176-.709-1.583-1.595-1.935-1.418-3.342 1.595-4.222-.886-5.805-2.836-1.055-1.418-2.99-2.127-4.925-3.19-.703 6.735 7.036 16.482 15.831 19.849zm150.218-35.091c1.055-1.95 2.111-3.367 2.814-4.962.704-1.772 1.232-3.545 1.056-5.494 0-2.658.879-6.557-2.639-6.912-1.583-.177-4.046 3.367-4.925 5.671-2.638 6.203-1.407 9.393 3.694 11.697zm-14.952-31.015c-.351.532-.527 1.063-.879 1.418l5.453 14.355c4.573-5.849 5.98-12.051 2.99-14.355-1.759-1.241-4.925-.886-7.564-1.418zm-126.647 82.588h-1.231l-2.99 12.228c-1.056 4.077-4.588 14.671-4.588 14.671s1.773-2.442 2.301-2.265c3.694-7.975 9.498-15.241 6.508-24.634zm-99.91-67.346c-1.407 0-2.99.354-4.222 0-13.896-5.494-28.847-6.026-43.271-8.153-2.814-.354-5.805-1.063-8.443-1.949-.88-.355-1.584-1.595-2.463-2.482 1.055-.886 1.935-2.304 2.99-2.304 3.87 0 8.091-.177 11.785.709 12.841 3.013 25.681 6.557 38.522 10.102 1.935.532 3.694 1.95 5.453 3.013 0 .177-.176.532-.352 1.063zm366.925 55.649c1.583-.355 3.342-1.064 4.925-1.064 9.323.355 17.942 3.368 25.329 8.684 8.971 6.381 17.59 13.47 26.209 20.382 1.232.886 1.583 2.835 2.463 4.253-1.583-.177-3.694.354-4.925-.354-6.333-4.431-12.665-9.039-18.47-14.001-9.85-8.507-20.58-15.065-33.948-16.128-.528 0-1.056-.354-1.583-.709.176-.177 0-.532 0-1.063zM80.386 119.69H69.304c-14.951 0-29.199 3.544-43.447 7.443-4.222 1.064-8.267 2.836-12.489 3.899-1.231.355-2.99-.886-4.397-1.417.879-1.241 1.583-3.191 2.814-3.545 7.74-2.127 15.479-4.253 23.395-5.848 13.368-2.482 26.737-5.14 40.457-4.254 1.759.177 3.518 1.063 5.453 1.595-.528.886-.528 1.595-.704 2.127z"/><path d="M480.556 49.331c-1.231.532-2.814 1.595-3.87 1.241-14.072-4.608-28.496-2.481-42.743-2.836-2.991-.177-5.981 0-8.795 0-.176-.709-.352-1.418-.352-2.127 1.407-.709 2.99-1.95 4.397-1.95h39.402c4.045.177 7.915 2.304 11.785 3.367.176.709.176 1.418.176 2.304zm-250.305 83.474l-14.247 4.785c-.352-.355-.528-.886-.88-1.241.704-1.063 1.231-2.481 2.111-3.19 8.443-6.912 24.274-7.266 33.421-1.063 2.814 1.949 2.814 3.544.527 6.025-5.453 5.672-13.016 7.621-20.052 5.14-2.815-1.063-4.398-2.304-2.111-5.494.704-1.063.704-2.658 1.231-4.962zm4.925 7.266c6.333-1.241 6.861-1.595 7.74-4.785-5.453-1.418-8.971.709-7.74 4.785zm1.233 57.244c6.332 1.064 11.961 3.19 17.414 2.836 7.036-.532 14.072-2.836 21.108-4.785 3.518-1.064 6.508-3.19 10.026-4.431 1.055-.354 2.286 0 3.518.177-.352 1.241-.176 2.836-.88 3.368-2.814 1.949-5.804 3.899-8.971 5.139-8.619 3.545-17.589 6.912-27.088 5.317-4.573-.709-8.795-2.836-13.017-4.431-1.407-.531-1.583-2.126-2.11-3.19zM223.04 63.686l-4.222 2.836c-.527-1.418-1.583-2.836-1.407-4.253.176-4.431 4.046-6.735 9.85-6.38 5.629.355 8.971 3.19 8.795 7.621-1.407-.177-2.638-.177-4.749-.354.88 1.949 2.111 3.545 2.287 5.14.176 1.418-.528 3.013-.88 4.608-1.583-.354-3.342-.354-4.573-1.241s-2.111-2.481-2.814-3.722c-1.056-1.418-1.583-3.013-2.287-4.253zm-48.899 13.292c-3.87-3.19-4.222-7.089-.352-8.861 3.166-1.418 7.036-1.418 10.554-1.241 1.935.177 3.694 1.95 2.287 4.962-.704 1.595.352 3.722.352 5.671s.351 5.14-.704 5.671c-2.639 1.595-4.046-1.063-5.101-3.19-.704-1.418-1.231-3.013-2.111-4.431-.528-1.063-1.231-1.95-1.935-3.013-.703.886-1.407 1.95-2.287 2.836 0 .709-.175 1.063-.703 1.595zm-18.294-28.711c1.935-6.38 3.518-12.051 8.619-15.596 1.407-1.063 4.045-.709 5.98-.354.88.177 1.935 1.418 2.111 2.481.176.532-1.231 1.772-2.111 2.127-3.518 1.595-5.628 4.076-6.332 7.798-.176 1.595-.704 3.367-1.583 4.431s-2.639 2.127-3.694 1.95c-1.231-.177-2.111-1.95-2.99-2.836zm46.965-22.153c4.045-3.013 10.553-2.836 15.127 1.241 3.166 2.836 5.101 6.912 7.388 10.634.527.709-.704 2.481-1.056 3.899-1.055-.532-2.462-.886-2.99-1.595-7.564-10.811-5.101-9.039-18.469-14.178zm11.961 91.981c-4.925 0-10.73-4.254-11.609-8.507-.176-.886.527-1.95.879-3.013 1.055.354 2.111.354 2.99 1.063 2.639 1.773 5.277 3.722 7.74 5.849 1.055.886 1.759 1.949 2.462 3.013-1.055.709-2.11 1.417-2.462 1.595z"/></g><defs /></svg>