<svg width="108" height="77" viewBox="0 0 108 77" fill="none" xmlns="http://www.w3.org/2000/svg">
<path d="M68.1062 43.2223C67.8444 43.986 67.6917 44.7278 67.5499 45.4806C67.4517 46.0042 67.2989 46.5169 67.1135 47.0188C66.9826 47.3788 66.7971 47.706 66.4917 47.9569C64.0916 49.9206 62.3025 52.3643 60.8734 55.1025C60.1098 56.5752 59.4225 58.0807 58.8661 59.6407C58.757 59.9462 58.5825 60.1534 58.2552 60.2189C57.9716 60.2734 57.8734 60.4698 57.8843 60.7425C57.8843 60.8298 57.8843 60.928 57.8843 61.0153C57.8843 61.2989 57.7316 61.4625 57.4588 61.5389C57.2952 61.5825 57.1207 61.5935 56.9461 61.5935C55.8006 61.5935 54.6552 61.5826 53.5097 61.6153C52.7242 61.6371 52.5715 60.9935 52.7788 60.4916C52.8552 60.3062 52.9752 60.1534 53.117 60.0007C54.5134 58.4298 55.9425 56.8916 57.2079 55.2116C58.8334 53.0515 60.2298 50.7606 61.1352 48.186C61.6698 46.6587 61.9425 45.0769 61.9207 43.4623C61.9098 42.7205 61.768 41.9896 61.5498 41.2696C61.408 40.8114 61.048 40.6587 60.6225 40.5932C60.0443 40.506 59.5098 40.626 58.9752 40.8441C58.277 41.1387 57.677 41.5641 57.0988 42.0332C56.9352 42.1642 56.7825 42.2187 56.5861 42.1096C55.7025 41.6078 54.7315 41.3896 53.7606 41.1932C52.877 41.0187 51.9824 40.975 51.077 41.0187C49.0915 41.1169 47.3896 42.666 47.0951 44.6296C46.9315 45.7533 47.1715 46.8115 47.466 47.8697C48.0442 49.9533 48.8733 51.9388 49.6478 53.9461C50.3242 55.7243 50.9679 57.5134 51.3279 59.3898C51.4151 59.8262 51.3497 59.968 50.957 60.1425C50.6733 60.2625 50.5424 60.4589 50.5533 60.7753C50.5642 61.3862 50.3897 61.5716 49.7678 61.5716C48.5024 61.5825 47.2369 61.5825 45.9823 61.5716C45.5787 61.5716 45.3823 61.3644 45.3714 60.9607C45.3496 60.4916 45.546 60.0553 45.6442 59.608C46.0042 57.8516 46.1351 56.0952 45.8842 54.3061C45.6551 52.6697 45.3278 51.077 44.6514 49.5606C43.6478 47.3351 42.055 45.6224 40.0368 44.2805C39.9059 44.1933 39.8186 44.2042 39.7096 44.3133C39.535 44.4769 39.3823 44.6515 39.2514 44.8478C38.3459 46.2551 37.7677 47.8042 37.2223 49.3751C36.3168 51.9934 35.6404 54.6661 35.1931 57.4043C35.095 58.0152 35.0186 58.6262 34.9531 59.2371C34.8986 59.7825 34.7022 60.0225 34.2549 60.1098C33.8949 60.1862 33.8186 60.3062 33.7968 60.688C33.7968 60.7644 33.7859 60.8516 33.7859 60.928C33.7313 61.3535 33.5459 61.5607 33.1204 61.5607C31.8986 61.5716 30.6658 61.5716 29.444 61.5716C29.1058 61.5716 28.9094 61.3098 28.9313 60.9389C28.9422 60.5789 29.0622 60.2516 29.2476 59.9353C30.1967 58.2443 31.124 56.5425 31.9422 54.7752C32.9568 52.5715 33.7749 50.3024 34.2331 47.9133C34.5931 46.0369 34.724 44.1496 34.4731 42.2514C34.3531 41.3678 34.0804 40.5496 33.4913 39.8405C32.1167 38.2041 31.124 36.3277 30.164 34.4295C29.7494 33.6113 29.3567 32.7931 28.9094 31.9859C28.1567 30.6113 26.9349 30.0004 25.4185 29.8586C25.1676 29.8367 24.9058 29.8477 24.6548 29.8258C24.1748 29.7822 23.7712 29.564 23.4657 29.1931C23.0839 28.7349 22.6912 28.2985 22.3203 27.8404C21.7203 27.1094 21.7203 26.4985 22.3094 25.7676C22.7021 25.2876 23.0839 24.8076 23.4657 24.3276C23.8585 23.8258 24.153 23.2803 24.1094 22.6149C24.0985 22.3967 24.1857 22.1894 24.2839 21.993C24.6548 21.2948 25.1785 20.6948 25.6803 20.0839C26.0621 19.6148 26.084 19.4185 25.8112 18.873C25.6694 18.6003 25.473 18.3603 25.2767 18.1203C24.1748 16.7457 23.6076 15.142 23.3348 13.4293C23.2148 12.6438 23.1603 11.8584 23.2803 11.0729C23.2912 10.9965 23.313 10.9311 23.3348 10.8656C23.433 10.6147 23.6076 10.582 23.7821 10.7893C23.9348 10.9747 24.0221 11.2038 24.1094 11.4438C24.8185 13.3638 25.8658 15.0548 27.4912 16.353C28.7349 17.3457 30.1749 17.8803 31.724 18.153C33.404 18.4475 35.0622 18.4366 36.7095 17.9566C38.0077 17.5748 39.1095 16.8657 40.1568 16.0475C40.375 15.8839 40.5714 15.6875 40.8223 15.5784C40.9314 15.5348 41.0623 15.4584 41.1823 15.5566C41.3023 15.6548 41.2805 15.7966 41.2368 15.9275C41.0405 16.6366 40.6368 17.2257 40.1677 17.7712C39.1205 19.0148 37.7786 19.8766 36.3604 20.6294C36.055 20.793 35.7386 20.9348 35.4441 21.0985C35.084 21.3057 35.0731 21.4694 35.4331 21.6876C36.055 22.0585 36.7313 22.3203 37.4186 22.5712C41.0841 23.9021 44.8151 24.9821 48.666 25.6912C51.8079 26.2694 54.9715 26.4003 58.1679 26.2149C60.5134 26.0731 62.8371 25.844 65.1717 25.604C66.4698 25.4731 67.768 25.3094 69.0881 25.3749C70.0153 25.4185 70.9317 25.5712 71.7935 25.9313C73.7026 26.7494 74.8481 28.2004 75.3281 30.1968C75.6663 31.615 75.8518 33.055 75.9281 34.5059C76.2445 40.386 76.1463 46.266 76.1572 52.1461C76.1572 54.317 76.1463 56.4879 76.1354 58.6589C76.1354 58.8989 76.1027 59.1498 76.0481 59.3898C75.9499 59.7934 75.7754 59.9353 75.3609 59.9462C74.4663 59.968 73.5608 59.9898 72.6663 59.9571C72.5026 59.9571 72.339 59.9462 72.1754 59.9571C71.4226 59.9571 71.2917 60.0989 71.2917 60.8407C71.2917 61.3425 71.1063 61.5716 70.6044 61.5826C69.4044 61.6044 68.2044 61.5935 67.0044 61.5935C66.7208 61.5935 66.5244 61.3862 66.4917 61.0916C66.448 60.7316 66.5571 60.4153 66.7317 60.1098C67.8117 58.1789 68.6844 56.1716 69.2953 54.0443C69.819 52.2224 70.1026 50.3679 69.9826 48.4806C69.8626 46.6806 69.4044 44.9787 68.3462 43.4842C68.2371 43.4078 68.1826 43.3314 68.1062 43.2223ZM49.266 30.9495C49.266 30.5131 49.2769 29.9567 49.266 29.4004C49.2551 29.1167 49.2006 28.844 49.1678 28.5604C49.0369 27.5349 48.5569 27.1204 47.6078 27.1749C47.3024 27.1967 47.1933 27.2949 47.2151 27.5676C47.2696 28.0804 47.2587 28.5822 47.1933 29.0949C47.0733 30.1858 46.8115 31.244 46.2224 32.1822C45.6005 33.1641 44.706 33.6877 43.5278 33.7204C42.5023 33.7422 41.9023 32.9895 42.1423 31.9968C42.4914 30.5349 42.6332 29.0404 42.6005 27.5349C42.6005 27.3276 42.5787 27.1204 42.5459 26.9131C42.4805 26.4985 42.1969 26.2476 41.8368 26.0731C40.7787 25.5385 39.6441 25.2112 38.4986 24.9494C37.9859 24.8294 37.5277 24.9822 37.2113 25.4403C37.1568 25.5167 37.1023 25.5822 37.0477 25.6585C35.5859 27.6331 34.484 29.7931 33.6986 32.1059C32.924 34.3532 33.3931 36.4477 34.8004 38.3241C35.5641 39.3496 36.6222 40.0587 37.7132 40.7132C40.1241 42.1642 42.4696 43.7242 44.6951 45.4478C44.8478 45.5678 45.0005 45.6878 45.1751 45.7533C45.4151 45.8515 45.5569 45.7751 45.6333 45.5351C45.7096 45.3169 45.7314 45.0987 45.7314 44.8696C45.7533 42.6551 46.7569 40.9969 48.6224 39.8514C50.0624 38.9568 51.677 38.575 53.3461 38.4114C54.677 38.2696 56.0079 38.2587 57.3497 38.2805C58.8334 38.3132 60.3061 38.4005 61.7789 38.5532C63.9825 38.7823 65.9898 39.535 67.8444 40.7241C68.0953 40.8878 68.3462 41.0514 68.6299 41.1496C69.2735 41.3787 69.8081 41.2151 70.2117 40.6587C70.419 40.375 70.5608 40.0587 70.659 39.7314C70.9535 38.7823 71.1172 37.8114 71.2808 36.8296C71.619 34.8223 71.739 32.8041 71.4772 30.7859C71.3572 29.8367 71.1063 28.9095 70.5172 28.124C69.9499 27.3604 69.1753 27.0004 68.2262 27.0876C67.7899 27.1204 67.7571 27.2404 67.9644 27.6331C68.5317 28.7349 68.8153 29.9022 68.6517 31.1568C68.5317 32.0513 67.8553 32.815 67.048 32.9895C66.3389 33.1422 65.8371 32.8368 65.6517 32.1386C65.4553 31.4077 65.2371 30.6877 64.9426 30.0004C64.6371 29.2586 64.2771 28.5385 63.688 27.9713C63.088 27.3931 62.368 27.1531 61.5389 27.284C61.2443 27.3276 61.1025 27.4804 61.1243 27.7858C61.1352 27.9058 61.1462 28.0258 61.1898 28.1349C61.5716 29.1276 61.7352 30.164 61.8662 31.2113C61.9971 32.2913 61.6698 33.175 60.7425 33.8077C60.0989 34.255 59.3898 34.5495 58.6479 34.7568C56.7279 35.3023 54.7752 35.4332 52.7897 35.2477C52.0915 35.1823 51.3933 35.0623 50.7279 34.7786C49.9315 34.4513 49.4624 33.8622 49.3315 33.0113C49.2115 32.3568 49.3206 31.7131 49.266 30.9495ZM28.0585 19.8112C27.7094 19.8003 27.3931 19.8985 27.1203 20.1166C26.5749 20.5639 26.084 21.0657 25.6694 21.6221C25.3203 22.0912 25.0258 22.593 25.0039 23.2039C24.993 23.804 24.7639 24.3058 24.393 24.764C24.0439 25.1894 23.7385 25.6367 23.4003 26.0622C23.0185 26.564 23.0185 26.924 23.4112 27.4149C23.5748 27.6113 23.7603 27.7858 23.913 27.9931C24.2185 28.4404 24.6658 28.5931 25.1785 28.6476C25.3749 28.6695 25.5712 28.6913 25.7785 28.7022C27.2621 28.7567 28.4622 29.4113 29.4113 30.524C29.8476 31.0259 30.1858 31.5931 30.5567 32.1495C30.7967 32.4986 31.0149 32.8695 31.2549 33.2186C31.4295 33.4695 31.6258 33.4586 31.8004 33.2077C31.9531 33.0004 32.0404 32.7604 32.1386 32.5204C32.9131 30.6113 33.8077 28.7567 34.8331 26.9676C35.2368 26.2694 35.6841 25.5931 36.0659 24.884C36.3713 24.3167 36.2513 24.0003 35.695 23.684C34.6259 23.0839 33.5568 22.4948 32.4877 21.8839C31.5386 21.3494 30.6113 20.7821 29.6294 20.2912C29.1385 20.0512 28.6258 19.833 28.0585 19.8112ZM50.4115 31.2659C50.4115 31.604 50.4115 31.9422 50.4115 32.2695C50.4115 32.9568 50.7388 33.4477 51.3715 33.7095C51.7206 33.8513 52.0915 33.9604 52.4624 34.0368C53.6188 34.2659 54.7752 34.2441 55.9316 34.135C57.1316 34.015 58.2879 33.7422 59.4007 33.2731C60.1643 32.9568 60.5352 32.3677 60.6007 31.5713C60.6989 30.404 60.3825 29.324 59.9134 28.2767C59.6734 27.7531 59.2152 27.5022 58.6479 27.4694C58.1134 27.4367 57.5788 27.4913 57.0443 27.5022C55.7352 27.5349 54.4261 27.5676 53.117 27.5022C52.3642 27.4585 51.6115 27.3822 50.8588 27.4149C50.3569 27.4476 50.1388 27.7095 50.2042 28.2004C50.346 29.2367 50.4224 30.2513 50.4115 31.2659ZM74.1827 40.5932C74.1717 38.0296 74.1499 35.9786 73.9754 33.9277C73.9099 33.175 73.8227 32.4331 73.6045 31.7022C73.5281 31.4622 73.4408 31.244 73.299 31.0368C73.2336 30.9386 73.1463 30.8404 73.0154 30.8731C72.8954 30.9058 72.8626 31.0259 72.8517 31.1349C72.8299 31.2549 72.8299 31.3749 72.8299 31.484C72.819 33.4586 72.7208 35.4223 72.3826 37.375C72.2626 38.0296 72.1863 38.695 72.2954 39.3496C72.4808 40.4296 72.6663 41.5096 72.8736 42.5896C73.0263 43.3642 73.1572 44.1387 73.3972 44.8915C73.4626 45.0987 73.5717 45.2624 73.8227 45.2187C74.0627 45.1751 74.1063 45.0005 74.1063 44.7933C74.1172 43.2333 74.1499 41.6623 74.1827 40.5932ZM45.9278 27.9822C45.9278 27.7858 45.9387 27.5785 45.9278 27.3822C45.906 26.9676 45.7751 26.804 45.3714 26.684C45.0442 26.5858 44.7169 26.5313 44.3787 26.5203C43.8551 26.4876 43.7132 26.6513 43.7678 27.1749C43.8551 28.0585 43.8332 28.9313 43.7241 29.804C43.6369 30.4804 43.4732 31.1349 43.3641 31.8113C43.2987 32.215 43.5387 32.4768 43.9423 32.455C44.1496 32.444 44.346 32.3895 44.5314 32.2695C45.0442 31.9204 45.2951 31.4077 45.4914 30.8513C45.8405 29.9131 45.9278 28.9531 45.9278 27.9822ZM67.7135 30.5458C67.7135 29.4877 67.3862 28.4404 66.9062 27.6985C66.3717 26.8694 65.3135 26.8913 64.6698 27.164C64.4844 27.2404 64.4298 27.3822 64.5389 27.5567C64.5935 27.6549 64.6589 27.7422 64.7244 27.8295C65.008 28.1676 65.2589 28.5167 65.4771 28.8986C65.9244 29.6731 66.2298 30.5131 66.3935 31.3859C66.4698 31.8113 66.7644 31.975 67.1462 31.8222C67.408 31.7131 67.5935 31.5168 67.659 31.2222C67.7135 30.9822 67.7026 30.7422 67.7135 30.5458Z" fill="#051B61"/>
<path d="M42.0986 8.31284C42.0986 12.8947 38.3568 16.6366 33.7858 16.6147C29.193 16.5929 25.4948 12.8947 25.4839 8.31284C25.4839 3.73097 29.2367 -0.0108854 33.8076 2.37936e-05C38.4004 0.0327514 42.0986 3.73097 42.0986 8.31284ZM28.5385 7.33101C28.5385 10.4183 31.0585 12.9383 34.1349 12.9274C37.2113 12.9165 39.7204 10.4074 39.7204 7.34192C39.7204 4.26552 37.2222 1.75641 34.1458 1.75641C31.0367 1.7455 28.5385 4.2328 28.5385 7.33101Z" fill="#051B61"/>
<path d="M77.5863 66.4043C77.5863 65.1716 77.5863 63.9716 77.5863 62.7716C77.5863 62.3134 77.6409 62.2479 78.0881 62.2479C78.4045 62.2479 78.7209 62.2588 79.0372 62.2479C79.2881 62.2479 79.3863 62.3679 79.3754 62.597C79.3754 62.7061 79.3754 62.8152 79.3754 62.9243C79.3754 67.0371 79.3645 71.1608 79.3863 75.2735C79.3863 75.699 79.2227 75.9608 78.8845 76.1572C78.1972 76.5608 77.4445 76.779 76.659 76.9099C75.6227 77.0735 74.5863 77.0081 73.6044 76.6481C72.0226 76.0699 71.1171 74.9026 70.7462 73.288C70.299 71.3244 70.4953 69.4589 71.6953 67.7789C72.6881 66.3934 74.0517 65.7716 75.7645 65.8916C76.3972 65.9243 76.9754 66.1098 77.5863 66.4043ZM77.5863 71.4117C77.5863 70.2771 77.5754 69.1425 77.5972 68.008C77.5972 67.8007 77.5208 67.6807 77.3572 67.5716C76.9427 67.2989 76.4954 67.1789 76.0045 67.1243C74.8154 67.0153 73.8663 67.4298 73.179 68.4007C72.6335 69.1753 72.4153 70.0589 72.3826 70.9862C72.339 72.2735 72.5244 73.5062 73.3208 74.5644C74.2917 75.8517 75.8736 75.9826 77.0736 75.5353C77.4118 75.4044 77.5972 75.1644 77.5863 74.7608C77.5754 73.648 77.5863 72.5353 77.5863 71.4117Z" fill="#051B61"/>
<path d="M63.0443 71.4008C63.0225 72.2517 62.9571 73.1026 62.6843 73.9208C62.0625 75.819 60.6661 76.8881 58.6588 76.9645C57.4479 77.0081 56.3133 76.7463 55.3642 75.9281C54.6115 75.2736 54.197 74.4335 53.9897 73.4844C53.6188 71.7717 53.6188 70.0699 54.2733 68.4226C54.8951 66.8298 56.117 66.0225 57.797 65.8262C58.4843 65.7498 59.1606 65.7935 59.8152 65.9789C61.2989 66.3825 62.2043 67.3862 62.6734 68.8153C62.9571 69.6662 63.0334 70.5281 63.0443 71.4008ZM61.157 71.259C61.1788 70.8444 61.1243 70.3099 61.037 69.7644C60.9388 69.1317 60.8188 68.5098 60.4479 67.9753C59.8152 67.048 58.7679 66.7753 57.557 67.0916C56.6188 67.3317 56.1497 68.0626 55.9206 68.9571C55.5715 70.3317 55.5606 71.7281 55.7679 73.1135C55.8661 73.7244 56.0079 74.3245 56.3788 74.8372C57.0006 75.699 57.8952 75.8736 58.877 75.7427C59.837 75.6227 60.4479 75.0336 60.7534 74.139C61.0698 73.2663 61.157 72.3281 61.157 71.259Z" fill="#051B61"/>
<path d="M28.615 71.4335C28.6259 70.408 28.7241 69.4371 29.095 68.5207C29.7386 66.8952 30.9496 66.0225 32.6732 65.848C33.415 65.7716 34.1351 65.8261 34.8551 66.0552C36.1314 66.448 36.9933 67.3098 37.4296 68.5534C38.0842 70.3971 38.0951 72.2844 37.4733 74.1389C36.8733 75.9281 35.4332 76.9317 33.5132 76.9972C32.3132 77.0299 31.2005 76.779 30.2732 75.9826C29.4659 75.2953 29.0623 74.368 28.8332 73.3644C28.6586 72.6989 28.6259 72.0444 28.615 71.4335ZM36.0114 71.2916C36.0333 70.8444 35.9787 70.2989 35.9023 69.7644C35.8042 69.1316 35.6733 68.488 35.2914 67.9534C34.6369 67.048 33.6332 66.7861 32.4114 67.1025C31.4732 67.3425 31.0041 68.0734 30.7859 68.9789C30.4368 70.3425 30.4259 71.728 30.6332 73.1135C30.7205 73.7244 30.8732 74.3244 31.2332 74.848C31.855 75.7099 32.7496 75.8953 33.7205 75.7753C34.6914 75.6553 35.3023 75.0662 35.6187 74.1608C35.9351 73.2553 36.0223 72.328 36.0114 71.2916Z" fill="#051B61"/>
<path d="M19.1457 71.4009C19.1239 72.2627 19.0476 73.1245 18.7748 73.9536C18.153 75.8409 16.7239 76.91 14.7275 76.9755C13.5166 77.0082 12.382 76.7464 11.4438 75.9173C10.702 75.2627 10.2875 74.4118 10.0802 73.4627C9.72018 71.7718 9.72018 70.0918 10.3529 68.4554C10.9747 66.8517 12.1966 66.0226 13.8875 65.8372C14.5748 65.7608 15.2512 65.8044 15.9057 65.9899C17.3894 66.3935 18.2948 67.3972 18.7639 68.8263C19.0476 69.6663 19.1239 70.5281 19.1457 71.4009ZM17.2584 71.1609C17.2694 70.8336 17.2257 70.2772 17.1384 69.7208C17.0403 69.099 16.9094 68.4881 16.5384 67.9645C15.8948 67.0481 14.8693 66.7863 13.6584 67.1026C12.7093 67.3426 12.2402 68.0845 12.0111 68.9899C11.6729 70.3427 11.6511 71.7063 11.8584 73.07C11.9566 73.6918 12.0875 74.3027 12.4584 74.8263C13.0039 75.5791 13.7675 75.83 14.673 75.7864C15.6548 75.7427 16.3639 75.2845 16.7566 74.39C17.1821 73.43 17.2475 72.4154 17.2584 71.1609Z" fill="#051B61"/>
<path d="M43.9096 71.7063C43.9096 70.2226 43.9205 68.739 43.8987 67.2662C43.8987 66.8626 44.0623 66.6117 44.4114 66.459C45.0114 66.1862 45.6442 66.0335 46.2878 65.9462C47.5205 65.7717 48.7424 65.7171 49.9642 66.0226C51.0224 66.2953 51.7969 66.8735 52.0697 67.9863C52.146 68.3353 52.1679 68.6844 52.1679 69.0444C52.1679 71.4117 52.1679 73.79 52.1679 76.1573C52.1679 76.6482 52.146 76.67 51.666 76.67C51.3715 76.67 51.066 76.67 50.7715 76.67C50.4333 76.6591 50.3569 76.5936 50.3569 76.2445C50.3569 73.9536 50.3569 71.6627 50.3569 69.3717C50.3569 69.1426 50.346 68.9135 50.3242 68.6954C50.2042 67.6808 49.6915 67.1244 48.6769 66.9608C47.9569 66.8517 47.2478 66.8844 46.5496 67.1026C46.4078 67.1462 46.266 67.2226 46.1351 67.299C45.8623 67.4517 45.7314 67.6808 45.7314 68.0081C45.7423 70.7354 45.7314 73.4627 45.7314 76.19C45.7314 76.6045 45.6769 76.6591 45.2623 76.67C44.946 76.67 44.6296 76.67 44.3132 76.67C43.975 76.67 43.9205 76.6045 43.9205 76.2663C43.9096 74.7391 43.9096 73.2227 43.9096 71.7063Z" fill="#051B61"/>
<path d="M0.0109092 71.7063C0.0109092 70.2226 0.0218184 68.739 0 67.2662C0 66.8626 0.163638 66.6117 0.512733 66.459C1.11274 66.1862 1.74547 66.0335 2.38912 65.9462C3.62186 65.7717 4.84369 65.7171 6.06552 66.0226C7.1128 66.2844 7.88736 66.8626 8.16009 67.9644C8.24736 68.3135 8.25827 68.6844 8.25827 69.0444C8.25827 71.4117 8.25827 73.79 8.25827 76.1573C8.25827 76.6482 8.23645 76.67 7.75645 76.67C7.4619 76.67 7.15644 76.67 6.86189 76.67C6.52371 76.6591 6.44734 76.5827 6.44734 76.2445C6.44734 74.7718 6.44734 73.299 6.44734 71.8263C6.44734 70.9536 6.44734 70.0808 6.44734 69.2081C6.44734 68.9244 6.42552 68.6408 6.37098 68.3681C6.18552 67.5281 5.60733 67.1026 4.80005 66.9608C4.06914 66.8408 3.33822 66.8844 2.61821 67.1135C2.47639 67.1572 2.34548 67.2226 2.22548 67.299C1.95275 67.4626 1.82184 67.6808 1.82184 68.0081C1.83275 70.7354 1.82184 73.4627 1.82184 76.19C1.82184 76.6045 1.76729 76.6591 1.35274 76.67C1.03637 76.67 0.720008 76.67 0.403641 76.67C0.0654553 76.67 0.0109092 76.6154 0.0109092 76.2663C0.0109092 74.7391 0.0109092 73.2227 0.0109092 71.7063Z" fill="#051B61"/>
<path d="M24.2403 74.139C24.5567 73.2008 24.8621 72.3389 25.1567 71.4662C25.7458 69.7535 26.3239 68.0407 26.9021 66.328C26.9785 66.1098 27.0876 66.0225 27.3167 66.0334C27.5567 66.0443 27.8076 66.0334 28.0476 66.0334C28.4512 66.0443 28.5167 66.1316 28.3749 66.5134C28.1567 67.1243 27.9385 67.7243 27.7203 68.3243C26.7385 70.9971 25.7567 73.6699 24.7748 76.3535C24.6985 76.5717 24.5785 76.6808 24.3385 76.659C24.153 76.6481 23.9566 76.6372 23.7712 76.659C23.4766 76.6917 23.3457 76.5499 23.2475 76.299C22.0148 73.0371 20.7712 69.7753 19.5275 66.5025C19.3966 66.1643 19.4839 66.0443 19.833 66.0334C20.2257 66.0225 20.6184 66.0334 21.0003 66.0334C21.2621 66.0334 21.3821 66.1534 21.4693 66.3934C22.3312 68.8262 23.193 71.248 24.0657 73.6808C24.1094 73.8117 24.1639 73.9426 24.2403 74.139Z" fill="#051B61"/>
<path d="M88.2227 76.9755C87.6336 76.9536 86.7936 76.8118 86.019 76.3754C85.8445 76.2773 85.6808 76.1682 85.539 76.0154C85.2336 75.6882 85.1681 75.2845 85.3754 75.0009C85.5827 74.7173 86.0845 74.6409 86.4445 74.8591C86.6627 74.99 86.859 75.1536 87.0663 75.2954C87.9063 75.8736 88.8009 75.9718 89.7172 75.5354C90.7536 75.0445 91.2227 73.4845 89.87 72.6336C89.4336 72.3609 88.9645 72.1427 88.4845 71.9463C87.8518 71.6845 87.2409 71.4008 86.7063 70.9754C85.0481 69.6445 85.3754 67.059 87.3281 66.2299C88.5936 65.6844 89.8918 65.7281 91.1682 66.219C91.3427 66.2844 91.4955 66.3826 91.6264 66.5026C91.9318 66.7753 91.9973 67.1572 91.8118 67.4517C91.6045 67.7681 91.2009 67.8772 90.83 67.7026C90.6445 67.6154 90.4809 67.4844 90.2954 67.3754C89.5645 66.939 88.8009 66.8626 88.0481 67.2772C87.1427 67.779 87.0227 68.9899 87.8081 69.6663C88.3209 70.1136 88.9536 70.3645 89.5645 70.6372C90.1209 70.8881 90.6554 71.1608 91.1682 71.499C92.9355 72.71 92.6955 75.4809 90.7318 76.4627C90.0118 76.8336 89.2809 76.9864 88.2227 76.9755Z" fill="#051B61"/>
<path d="M95.5973 69.4154C95.5973 71.7173 95.5973 74.0191 95.5973 76.31C95.5973 76.55 95.5319 76.6591 95.27 76.6591C94.8664 76.6482 94.4737 76.6482 94.07 76.6591C93.8409 76.6591 93.7537 76.55 93.7646 76.3428C93.7646 76.2991 93.7646 76.2555 93.7646 76.2119C93.7646 71.6954 93.7646 67.179 93.7646 62.6626C93.7646 62.2153 93.7864 62.1826 94.2446 62.1826C94.5719 62.1826 94.8991 62.1826 95.2264 62.1826C95.5428 62.1826 95.5864 62.2263 95.5864 62.5535C95.5864 64.3317 95.5864 66.1208 95.5864 67.899C95.5973 68.4009 95.5973 68.9136 95.5973 69.4154Z" fill="#051B61"/>
<path d="M64.4189 71.6298C64.4189 70.1353 64.4189 68.6298 64.4189 67.1352C64.4189 66.6334 64.5608 66.4152 65.0408 66.2407C66.0553 65.8807 67.1026 65.7607 68.1717 65.8261C68.7608 65.8698 69.3499 65.9134 69.8845 66.197C70.3863 66.4589 70.5063 66.9389 70.2117 67.408C69.9826 67.768 69.5026 67.888 69.1317 67.6807C68.9572 67.5716 68.7935 67.4407 68.6299 67.3098C68.1935 66.9498 67.7026 66.7861 67.1353 66.8407C66.5681 66.8952 66.2299 67.2552 66.2299 67.8225C66.2299 70.6262 66.2299 73.4407 66.2299 76.2444C66.2299 76.6371 66.2081 76.6699 65.8153 76.6699C65.4662 76.6699 65.128 76.6699 64.7789 76.6699C64.4735 76.6699 64.4189 76.6044 64.4189 76.299C64.4189 74.728 64.4189 73.1789 64.4189 71.6298Z" fill="#051B61"/>
<path d="M100.801 76.6589C99.59 76.6371 99.9173 76.8226 99.23 75.8407C98.1609 74.3244 97.1027 72.7971 96.0336 71.2698C95.8373 70.9862 95.8482 70.9971 96.1318 70.8007C97.7682 69.6989 98.9137 68.2261 99.59 66.3716C99.6664 66.1643 99.7755 66.0443 99.9937 66.0443C100.419 66.0443 100.845 66.0334 101.27 66.0443C101.554 66.0552 101.619 66.1643 101.543 66.437C101.51 66.5352 101.466 66.6443 101.412 66.7316C100.572 68.3461 99.4155 69.7207 97.9864 70.8443C97.8337 70.9643 97.8118 71.0298 97.9427 71.1934C99.2082 72.8516 100.474 74.5207 101.728 76.1789C101.805 76.2771 101.892 76.3862 101.837 76.528C101.783 76.6808 101.63 76.6589 101.51 76.6589C101.281 76.6589 101.041 76.6589 100.801 76.6589Z" fill="#051B61"/>
<path d="M81.83 71.3571C81.83 69.7208 81.83 68.0844 81.83 66.448C81.83 66.088 81.8627 66.0444 82.2009 66.0335C82.5936 66.0225 82.9864 66.0444 83.3682 66.0444C83.5537 66.0444 83.63 66.1534 83.63 66.3171C83.63 66.4262 83.63 66.5353 83.63 66.6444C83.63 69.8517 83.63 73.059 83.63 76.2663C83.63 76.5936 83.5864 76.6481 83.2591 76.6481C82.8991 76.6481 82.5282 76.6481 82.1682 76.6481C81.8409 76.6481 81.8191 76.6154 81.8191 76.2772C81.83 74.6517 81.83 73.0044 81.83 71.3571Z" fill="#051B61"/>
<path d="M104.27 63.6443C102.437 63.6443 100.976 62.1716 100.976 60.3388C100.976 58.5279 102.459 57.066 104.27 57.066C106.081 57.066 107.554 58.5497 107.554 60.3606C107.554 62.1606 106.081 63.6443 104.27 63.6443ZM101.521 60.3388C101.521 61.8661 102.743 63.0988 104.259 63.1097C105.765 63.1207 107.019 61.8661 107.03 60.3606C107.03 58.8442 105.797 57.6115 104.27 57.6115C102.743 57.6115 101.521 58.8224 101.521 60.3388Z" fill="#051B61"/>
<path d="M83.8483 63.1207C83.8483 63.7317 83.3465 64.2117 82.7246 64.2008C82.1028 64.1898 81.6228 63.7316 81.6228 63.1316C81.6228 62.5316 82.1246 62.0516 82.7574 62.0516C83.3792 62.0516 83.8483 62.5098 83.8483 63.1207Z" fill="#051B61"/>
<path d="M49.2661 30.9494C49.3207 31.713 49.2116 32.3567 49.3207 33.0003C49.4625 33.8513 49.9207 34.4403 50.717 34.7676C51.3825 35.0404 52.0807 35.1604 52.7789 35.2367C54.7534 35.4331 56.7171 35.2913 58.6371 34.7458C59.3789 34.5385 60.088 34.244 60.7317 33.7967C61.6481 33.1531 61.9862 32.2803 61.8553 31.2003C61.7244 30.153 61.5608 29.1167 61.179 28.1239C61.1353 28.0148 61.1244 27.8948 61.1135 27.7748C61.0917 27.4694 61.2226 27.3166 61.5281 27.273C62.3572 27.1421 63.0663 27.3821 63.6772 27.9603C64.2663 28.5276 64.6263 29.2476 64.9317 29.9894C65.2263 30.6876 65.4445 31.4076 65.6408 32.1276C65.8263 32.8258 66.3281 33.1312 67.0372 32.9785C67.8445 32.804 68.5209 32.0403 68.6409 31.1458C68.8045 29.8912 68.5209 28.7348 67.9536 27.6221C67.7463 27.2294 67.779 27.1094 68.2154 27.0766C69.1645 26.9894 69.9391 27.3494 70.5063 28.113C71.0954 28.8985 71.3463 29.8258 71.4663 30.7749C71.7282 32.804 71.6082 34.8113 71.27 36.8186C71.1063 37.7895 70.9427 38.7713 70.6482 39.7204C70.55 40.0477 70.4082 40.364 70.2009 40.6477C69.7972 41.2041 69.2736 41.3677 68.619 41.1386C68.3354 41.0404 68.0845 40.8768 67.8336 40.7131C65.979 39.524 63.9608 38.7713 61.7681 38.5422C60.2953 38.3895 58.8226 38.2913 57.3389 38.2695C55.9971 38.2368 54.6662 38.2586 53.3352 38.4004C51.6661 38.5749 50.0516 38.9459 48.6116 39.8404C46.757 40.9968 45.7424 42.6441 45.7206 44.8586C45.7206 45.0877 45.6879 45.3168 45.6224 45.5241C45.5352 45.7641 45.4043 45.8405 45.1642 45.7423C44.9897 45.6768 44.837 45.5568 44.6842 45.4368C42.4588 43.7023 40.1133 42.1532 37.7023 40.7022C36.6114 40.0477 35.5641 39.3386 34.7896 38.3131C33.3823 36.4367 32.9132 34.3422 33.6878 32.0949C34.4841 29.7821 35.586 27.6221 37.0369 25.6475C37.0914 25.5712 37.1569 25.5057 37.2005 25.4293C37.5169 24.9712 37.9751 24.8184 38.4878 24.9384C39.6333 25.2112 40.7678 25.5275 41.826 26.0621C42.1751 26.2366 42.4697 26.4875 42.5351 26.9021C42.5679 27.1094 42.5788 27.3166 42.5897 27.5239C42.6224 29.0294 42.4697 30.513 42.1315 31.9858C41.9024 32.9785 42.5024 33.7203 43.517 33.7094C44.6952 33.6876 45.5897 33.164 46.2115 32.1712C46.8115 31.233 47.0625 30.1748 47.1825 29.0839C47.237 28.5821 47.2588 28.0694 47.2043 27.5566C47.1715 27.2839 47.2915 27.1748 47.597 27.1639C48.5461 27.1094 49.0152 27.5348 49.157 28.5494C49.1897 28.833 49.2552 29.1057 49.2552 29.3894C49.277 29.9567 49.2661 30.513 49.2661 30.9494Z" fill="#459ED5"/>
<path d="M28.0585 19.8111C28.6258 19.8329 29.1385 20.0511 29.6294 20.302C30.6003 20.7929 31.5385 21.3493 32.4876 21.8947C33.5567 22.5056 34.6258 23.0838 35.6949 23.6947C36.2513 24.0111 36.3713 24.3275 36.0658 24.8948C35.684 25.6039 35.2367 26.2802 34.8331 26.9784C33.8076 28.7675 32.924 30.6221 32.1385 32.5312C32.0403 32.7712 31.9531 33.0003 31.8003 33.2185C31.6258 33.4694 31.4294 33.4803 31.2549 33.2294C31.004 32.8803 30.7858 32.5094 30.5567 32.1603C30.1858 31.6148 29.8476 31.0366 29.4112 30.5348C28.4512 29.4221 27.2621 28.7675 25.7785 28.713C25.5821 28.7021 25.3857 28.6803 25.1785 28.6584C24.6766 28.6039 24.2294 28.4512 23.913 28.0039C23.7712 27.7966 23.5748 27.6221 23.4112 27.4257C23.0184 26.9348 23.0184 26.5748 23.4003 26.073C23.7275 25.6366 24.0439 25.1893 24.393 24.7748C24.7639 24.3166 24.993 23.8147 25.0039 23.2147C25.0148 22.6038 25.3203 22.102 25.6694 21.6329C26.0948 21.0656 26.5857 20.5747 27.1203 20.1274C27.393 19.8874 27.7094 19.7892 28.0585 19.8111ZM28.3858 21.8947C27.9385 21.9275 27.5239 21.9929 27.153 22.1784C26.9021 22.2984 26.673 22.4511 26.5748 22.7238C26.4766 23.0184 26.5967 23.3893 26.8694 23.6293C27.1312 23.8584 27.4148 23.8366 27.7094 23.6947C28.1894 23.4547 28.5058 23.0511 28.7676 22.5929C29.0621 22.0693 28.953 21.8947 28.3858 21.8947Z" fill="#459ED5"/>
<path d="M50.4115 31.266C50.4224 30.2514 50.346 29.2368 50.2042 28.2223C50.1387 27.7205 50.3569 27.4586 50.8588 27.4368C51.6115 27.3932 52.3642 27.4805 53.117 27.5241C54.4261 27.6005 55.7352 27.5677 57.0443 27.5241C57.5788 27.5132 58.1134 27.4586 58.6479 27.4914C59.2152 27.5241 59.6734 27.775 59.9134 28.2986C60.3934 29.335 60.6989 30.4259 60.6007 31.5932C60.5352 32.3896 60.1643 32.9678 59.4007 33.2951C58.2879 33.7642 57.1206 34.0369 55.9315 34.1569C54.7752 34.2769 53.6079 34.2878 52.4624 34.0587C52.0915 33.9823 51.7206 33.8733 51.3715 33.7314C50.7387 33.4696 50.4115 32.9678 50.4115 32.2914C50.4115 31.9423 50.4115 31.6041 50.4115 31.266Z" fill="#459ED5"/>
<path d="M45.9278 27.9821C45.9169 28.953 45.8296 29.9239 45.5024 30.8403C45.306 31.3857 45.0551 31.9094 44.5424 32.2585C44.3569 32.3785 44.1605 32.4439 43.9533 32.4439C43.5387 32.4658 43.3096 32.2039 43.3751 31.8003C43.4733 31.1348 43.6478 30.4694 43.7351 29.793C43.8442 28.9203 43.866 28.0366 43.7787 27.1639C43.7242 26.6402 43.866 26.4875 44.3896 26.5093C44.7278 26.5311 45.0551 26.5857 45.3824 26.673C45.786 26.793 45.9169 26.9566 45.9387 27.3712C45.9387 27.5784 45.9278 27.7748 45.9278 27.9821Z" fill="#459ED5"/>
<path d="M67.7133 30.5458C67.7024 30.7422 67.7133 30.9822 67.6588 31.2113C67.5933 31.5058 67.4188 31.6913 67.146 31.8113C66.7533 31.9749 66.4697 31.8004 66.3933 31.3749C66.2188 30.4913 65.9133 29.6622 65.4769 28.8876C65.2587 28.5058 64.9969 28.1567 64.7242 27.8185C64.6587 27.7312 64.5933 27.644 64.5387 27.5458C64.4296 27.3712 64.4842 27.2294 64.6696 27.1531C65.3242 26.8912 66.3715 26.8585 66.906 27.6876C67.386 28.4403 67.7133 29.4985 67.7133 30.5458Z" fill="#459ED5"/>
<path d="M28.5386 7.331C28.5386 4.23278 31.0368 1.74548 34.1459 1.74548C37.2223 1.75639 39.7205 4.2546 39.7205 7.331C39.7205 10.3965 37.2114 12.9056 34.135 12.9165C31.0477 12.9383 28.5386 10.4292 28.5386 7.331Z" fill="#459ED5"/>
<path d="M28.3859 21.8948C28.9531 21.8948 29.0622 22.0802 28.7677 22.593C28.5059 23.0512 28.1895 23.4548 27.7095 23.6948C27.4259 23.8366 27.1422 23.8584 26.8695 23.6293C26.5968 23.3893 26.4768 23.0184 26.5749 22.7239C26.6731 22.4402 26.9022 22.2984 27.1531 22.1784C27.5349 21.982 27.9386 21.9166 28.3859 21.8948Z" fill="#051B61"/>
<path d="M104.565 60.5788C105.165 60.9824 105.405 61.6042 105.776 62.1388C105.743 62.1606 105.721 62.1824 105.71 62.1824C105.099 62.1933 105.11 62.1933 104.805 61.6588C104.696 61.4733 104.576 61.2879 104.467 61.1024C104.259 60.7533 103.932 60.677 103.561 60.677C103.43 60.677 103.387 60.7206 103.397 60.8515C103.408 61.2224 103.387 61.5933 103.408 61.9642C103.43 62.2588 103.234 62.1606 103.092 62.1824C102.917 62.2043 102.841 62.1606 102.841 61.9533C102.852 60.917 102.841 59.8806 102.852 58.8442C102.852 58.7678 102.797 58.6369 102.95 58.6478C103.55 58.6588 104.15 58.5933 104.739 58.6915C105.263 58.7788 105.579 59.1606 105.579 59.6079C105.568 60.0988 105.241 60.4588 104.707 60.5679C104.663 60.557 104.63 60.5679 104.565 60.5788ZM103.932 60.1751C104.074 60.1751 104.227 60.1751 104.368 60.1751C104.423 60.1751 104.477 60.1533 104.521 60.1424C104.816 60.066 104.957 59.9024 104.947 59.6406C104.936 59.3788 104.783 59.2042 104.488 59.1606C104.292 59.1279 104.096 59.1279 103.888 59.1279C103.376 59.1279 103.376 59.1278 103.376 59.6406C103.387 60.1751 103.387 60.1751 103.932 60.1751Z" fill="#051B61"/>
</svg>
